<svg width="48" height="48" viewBox="0 0 48 48" fill="none" xmlns="http://www.w3.org/2000/svg">
<path d="M33.745 16.6275C33.5368 16.0881 33.2178 15.5983 32.8088 15.1897C32.3997 14.7811 31.9096 14.4627 31.37 14.255C30.627 13.9798 29.8423 13.8344 29.05 13.825C27.7325 13.765 27.3375 13.75 24 13.75C20.6625 13.75 20.2675 13.765 18.95 13.825C18.1569 13.8341 17.3713 13.9795 16.6275 14.255C16.0881 14.4633 15.5984 14.7822 15.1897 15.1912C14.7811 15.6003 14.4627 16.0904 14.255 16.63C13.9798 17.373 13.8344 18.1577 13.825 18.95C13.765 20.2675 13.75 20.6625 13.75 24C13.75 27.3375 13.765 27.7325 13.825 29.05C13.8341 29.8431 13.9795 30.6287 14.255 31.3725C14.4633 31.9119 14.7822 32.4016 15.1912 32.8103C15.6003 33.2189 16.0904 33.5373 16.63 33.745C17.373 34.0202 18.1577 34.1656 18.95 34.175C20.2675 34.235 20.6625 34.2475 24 34.2475C27.3375 34.2475 27.7325 34.235 29.05 34.1725C29.843 34.1642 30.6286 34.0196 31.3725 33.745C31.9119 33.5367 32.4017 33.2178 32.8103 32.8088C33.2189 32.3997 33.5373 31.9096 33.745 31.37C34.0202 30.627 34.1656 29.8423 34.175 29.05C34.235 27.7325 34.2475 27.3375 34.2475 24C34.2475 20.6625 34.235 20.2675 34.1725 18.95C34.1642 18.157 34.0196 17.3714 33.745 16.6275ZM24 30.42C22.7303 30.42 21.489 30.0435 20.4332 29.338C19.3775 28.6326 18.5546 27.6299 18.0687 26.4568C17.5828 25.2837 17.4556 23.9929 17.7034 22.7475C17.9511 21.5022 18.5625 20.3582 19.4604 19.4604C20.3582 18.5625 21.5022 17.9511 22.7475 17.7034C23.9929 17.4556 25.2837 17.5828 26.4568 18.0687C27.6299 18.5546 28.6326 19.3775 29.338 20.4332C30.0435 21.489 30.42 22.7302 30.42 24C30.42 25.7027 29.7436 27.3356 28.5396 28.5396C27.3356 29.7436 25.7027 30.42 24 30.42ZM30.6725 18.8275C30.3758 18.8275 30.0858 18.7395 29.8391 18.5747C29.5925 18.4099 29.4002 18.1756 29.2867 17.9015C29.1732 17.6274 29.1434 17.3258 29.2013 17.0349C29.2592 16.7439 29.4021 16.4766 29.6118 16.2668C29.8216 16.0571 30.0889 15.9142 30.3799 15.8563C30.6708 15.7984 30.9724 15.8281 31.2465 15.9417C31.5206 16.0552 31.7549 16.2475 31.9197 16.4941C32.0845 16.7408 32.1725 17.0308 32.1725 17.3275C32.1725 17.7253 32.0145 18.1069 31.7332 18.3882C31.4519 18.6695 31.0703 18.8275 30.6725 18.8275ZM28.1675 24C28.1675 24.8242 27.9231 25.63 27.4652 26.3153C27.0072 27.0007 26.3563 27.5348 25.5948 27.8503C24.8333 28.1657 23.9954 28.2482 23.187 28.0874C22.3786 27.9266 21.636 27.5297 21.0531 26.9469C20.4703 26.364 20.0734 25.6215 19.9126 24.813C19.7518 24.0046 19.8343 23.1667 20.1497 22.4052C20.4652 21.6437 20.9993 20.9928 21.6847 20.5348C22.37 20.0769 23.1758 19.8325 24 19.8325C25.1053 19.8325 26.1653 20.2716 26.9469 21.0531C27.7284 21.8347 28.1675 22.8947 28.1675 24ZM24 0C19.2533 0 14.6131 1.40758 10.6663 4.04473C6.71954 6.68188 3.6434 10.4302 1.8269 14.8156C0.0103988 19.201 -0.464881 24.0266 0.461164 28.6822C1.38721 33.3377 3.67299 37.6141 7.02945 40.9706C10.3859 44.327 14.6623 46.6128 19.3178 47.5388C23.9734 48.4649 28.799 47.9896 33.1844 46.1731C37.5698 44.3566 41.3181 41.2805 43.9553 37.3337C46.5924 33.3869 48 28.7467 48 24C48 17.6348 45.4714 11.5303 40.9706 7.02944C36.4697 2.52856 30.3652 0 24 0V0ZM36.425 29.1525C36.4038 30.1898 36.2069 31.216 35.8425 32.1875C35.5214 33.0177 35.0305 33.7717 34.4011 34.4011C33.7717 35.0305 33.0177 35.5214 32.1875 35.8425C31.2168 36.2066 30.1915 36.4035 29.155 36.425C27.82 36.485 27.395 36.5 24 36.5C20.605 36.5 20.18 36.485 18.845 36.425C17.8085 36.4035 16.7832 36.2066 15.8125 35.8425C14.9823 35.5214 14.2283 35.0305 13.5989 34.4011C12.9695 33.7717 12.4786 33.0177 12.1575 32.1875C11.7934 31.2168 11.5965 30.1915 11.575 29.155C11.515 27.82 11.5 27.395 11.5 24C11.5 20.605 11.515 20.18 11.575 18.845C11.5957 17.8087 11.7918 16.7833 12.155 15.8125C12.4761 14.9816 12.9673 14.227 13.5971 13.5971C14.227 12.9673 14.9816 12.476 15.8125 12.155C16.7833 11.7918 17.8087 11.5956 18.845 11.575C20.18 11.515 20.605 11.5 24 11.5C27.395 11.5 27.82 11.515 29.155 11.575C30.1913 11.5956 31.2167 11.7918 32.1875 12.155C33.0179 12.4763 33.7721 12.9677 34.4015 13.5975C35.0309 14.2274 35.5217 14.9818 35.8425 15.8125C36.2066 16.7832 36.4036 17.8085 36.425 18.845C36.485 20.18 36.5 20.605 36.5 24C36.5 27.395 36.485 27.82 36.425 29.155V29.1525Z" fill="white"/>
</svg>
