<svg xmlns="http://www.w3.org/2000/svg" width="50" height="50" viewBox="0 0 149.14 149.14"><defs><style>.cls-1{fill:#111111;stroke:#FFFFFF;stroke-miterlimit:10;stroke-width:3px;}.cls-2{fill:#FFFFFF;}</style></defs><title>js</title><g id="Calque_2" data-name="Calque 2"><g id="Calque_2-2" data-name="Calque 2"><g id="Compétences"><circle class="cls-1" cx="74.57" cy="74.57" r="70.65"/><path class="cls-2" d="M110.7,118.38a21,21,0,0,1-11.44-3.08A17.12,17.12,0,0,1,93.44,109c-.16-.3-.14-.43.18-.61q3.52-2,7-4.07c.31-.19.44-.15.63.16a11.89,11.89,0,0,0,3.13,3.53,9.92,9.92,0,0,0,9.47,1.27,4.35,4.35,0,0,0,2.91-3,4.41,4.41,0,0,0-1.65-4.78,16.7,16.7,0,0,0-3.45-1.94c-2.33-1.08-4.76-2-7-3.18A17.68,17.68,0,0,1,98.9,92a13,13,0,0,1-2.77-8.66A12.2,12.2,0,0,1,106,71.23a19.06,19.06,0,0,1,9,.11,13.62,13.62,0,0,1,8.54,6.81c.13.22.09.31-.12.45-2.3,1.46-4.59,2.94-6.88,4.42-.23.14-.33.13-.48-.12a8.26,8.26,0,0,0-2.14-2.6,6,6,0,0,0-5.69-.87c-3.34,1.13-3.26,5.11-1.6,6.79A9.71,9.71,0,0,0,109.23,88c1.92,1,3.93,1.72,5.87,2.61a28.51,28.51,0,0,1,7.1,4.28,12.42,12.42,0,0,1,4.29,9.29,13.38,13.38,0,0,1-1.59,7.37,12.83,12.83,0,0,1-7.41,5.79A21.52,21.52,0,0,1,110.7,118.38Z"/><path class="cls-2" d="M88,88.66c0,5.57.07,11.14,0,16.71a13.24,13.24,0,0,1-3.29,8.89,11.77,11.77,0,0,1-6.34,3.59,18.55,18.55,0,0,1-11.17-.69,14.34,14.34,0,0,1-7.61-7.23c-.12-.25-.08-.35.15-.48,2.4-1.45,4.81-2.9,7.2-4.37.29-.18.37-.06.49.17a16.18,16.18,0,0,0,1.8,2.69,5.14,5.14,0,0,0,3.89,1.87,8,8,0,0,0,2.07-.16A4,4,0,0,0,78.32,106a15,15,0,0,0,.19-2.5q0-15.8,0-31.59c0-.47.11-.58.58-.58,2.79,0,5.59,0,8.38,0,.47,0,.62.09.61.59,0,5.59,0,11.18,0,16.77Z"/></g></g></g></svg>