<svg width="48" height="48" viewBox="0 0 48 48" fill="none" xmlns="http://www.w3.org/2000/svg">
<path d="M24 0C10.745 0 0 10.745 0 24C0 37.255 10.745 48 24 48C37.255 48 48 37.255 48 24C48 10.745 37.255 0 24 0ZM18.125 33.9475H13.265V18.3075H18.125V33.9475ZM15.665 16.3875C14.13 16.3875 13.1375 15.3 13.1375 13.955C13.1375 12.5825 14.16 11.5275 15.7275 11.5275C17.295 11.5275 18.255 12.5825 18.285 13.955C18.285 15.3 17.295 16.3875 15.665 16.3875ZM35.875 33.9475H31.015V25.28C31.015 23.2625 30.31 21.8925 28.5525 21.8925C27.21 21.8925 26.4125 22.82 26.06 23.7125C25.93 24.03 25.8975 24.48 25.8975 24.9275V33.945H21.035V23.295C21.035 21.3425 20.9725 19.71 20.9075 18.305H25.13L25.3525 20.4775H25.45C26.09 19.4575 27.6575 17.9525 30.28 17.9525C33.4775 17.9525 35.875 20.095 35.875 24.7V33.9475Z" fill="white"/>
</svg>
