<svg xmlns="http://www.w3.org/2000/svg" width="50" height="50" xmlns:xlink="http://www.w3.org/1999/xlink" viewBox="0 0 149.14 149.14"><defs><style>.cls-1{fill:none;}.cls-2{fill:#111111;stroke:#FFFFFF;stroke-miterlimit:10;stroke-width:3px;}.cls-3{fill:#FFFFFF;}.cls-6{fill:#FFFFFF;}.cls-7{fill:#fff;}</style><clipPath id="clip-path"><path class="cls-1" d="M26.66,75.59c0,13.92,21.45,25.2,47.91,25.2h0c26.46,0,47.91-11.28,47.91-25.2h0c0-13.92-21.45-25.2-47.91-25.2h0c-26.46,0-47.91,11.28-47.91,25.2"/></clipPath><radialGradient id="Dégradé_sans_nom_2" cx="-1245.31" cy="-157.38" r="0.14" gradientTransform="matrix(453.82, 0, 0, -453.82, 565204.73, -71364.91)" gradientUnits="userSpaceOnUse"><stop offset="0" stop-color="#adb1d4"/><stop offset="0.3" stop-color="#adb1d4"/><stop offset="0.75" stop-color="#484c88"/><stop offset="1" stop-color="#484c88"/></radialGradient><clipPath id="clip-path-2"><rect class="cls-1" x="24.66" y="47.52" width="99.81" height="56.14"/></clipPath></defs><title>php</title><g id="Calque_2" data-name="Calque 2"><g id="Calque_2-2" data-name="Calque 2"><g id="Compétences"><circle class="cls-2" cx="74.57" cy="74.57" r="70.65"/><g id="g3438"><g id="g3440"><g class="cls-3"><g id="g3442"><g id="g3448"><g id="g3450"><path id="path3462" class="cls-4" d="M26.66,75.59c0,13.92,21.45,25.2,47.91,25.2h0c26.46,0,47.91-11.28,47.91-25.2h0c0-13.92-21.45-25.2-47.91-25.2h0c-26.46,0-47.91,11.28-47.91,25.2"/></g></g></g></g></g><g id="g3464"><g class="cls-5"><g id="g3466"><g id="g3472"><path id="path3474" class="cls-6" d="M74.57,98.92c25.43,0,46-10.45,46-23.33S100,52.26,74.57,52.26s-46,10.44-46,23.33,20.61,23.33,46,23.33"/></g></g></g></g><g id="g3476"><g class="cls-5"><g id="g3478"><g id="g3484"><path id="path3486" d="M52.69,78.48a7.65,7.65,0,0,0,4.64-1.14,6.25,6.25,0,0,0,2-3.88c.32-1.7.2-2.88-.38-3.52s-1.86-1-3.79-1H51.83L50,78.48ZM41.76,90.22a.53.53,0,0,1-.4-.19.51.51,0,0,1-.11-.43l4.91-25.25a.51.51,0,0,1,.51-.42H57.25c3.33,0,5.8.9,7.36,2.68s2,4.29,1.43,7.44a11.69,11.69,0,0,1-1.27,3.53,11.84,11.84,0,0,1-2.34,2.94,10.43,10.43,0,0,1-3.85,2.31,17.55,17.55,0,0,1-5.3.68H49L47.77,89.8a.51.51,0,0,1-.51.42Z"/></g><g id="g3488"><path id="path3490" class="cls-7" d="M52.26,69.47h2.91c2.32,0,3.13.51,3.41.82.45.5.54,1.57.24,3.07A5.63,5.63,0,0,1,57,76.92a7.15,7.15,0,0,1-4.32,1H50.61Zm5-6.06H46.67a1,1,0,0,0-1,.84L40.74,89.5a1,1,0,0,0,.22.86,1,1,0,0,0,.8.38h5.5a1,1,0,0,0,1-.84L49.43,84h3.85a18,18,0,0,0,5.46-.71,10.8,10.8,0,0,0,4-2.42,12,12,0,0,0,3.77-6.75c.65-3.31.12-6-1.55-7.88s-4.27-2.86-7.75-2.86M49.34,79h3.35a8.14,8.14,0,0,0,5-1.25,6.74,6.74,0,0,0,2.2-4.19c.36-1.87.19-3.2-.5-4s-2.09-1.16-4.18-1.16H51.4L49.34,79m7.91-14.55c3.18,0,5.51.83,7,2.5s1.89,4,1.31,7a11,11,0,0,1-3.45,6.19,9.75,9.75,0,0,1-3.66,2.19,16.85,16.85,0,0,1-5.14.66H48.57L47.26,89.7h-5.5l4.91-25.25H57.25"/></g><g id="g3492"><path id="path3494" d="M78.66,83.51a.5.5,0,0,1-.4-.19.52.52,0,0,1-.11-.43l2.17-11.18a2.79,2.79,0,0,0-.14-2.14c-.19-.2-.74-.53-2.36-.53H73.88l-2.73,14a.52.52,0,0,1-.51.42H65.18a.53.53,0,0,1-.4-.19.52.52,0,0,1-.11-.43l4.91-25.26a.52.52,0,0,1,.51-.42h5.46a.52.52,0,0,1,.51.62l-1.18,6.1h4.23c3.22,0,5.41.56,6.68,1.73s1.71,3.1,1.21,5.67L84.71,83.09a.52.52,0,0,1-.51.42Z"/></g><g id="g3496"><path id="path3498" class="cls-7" d="M75.55,56.69H70.09a1,1,0,0,0-1,.84L64.16,82.79a1,1,0,0,0,1,1.24h5.46a1,1,0,0,0,1-.84l2.65-13.63h3.51c1.62,0,2,.34,2,.36s.23.6,0,1.69L77.64,82.79a1,1,0,0,0,1,1.24H84.2a1,1,0,0,0,1-.84l2.29-11.76c.53-2.76.07-4.83-1.37-6.15s-3.67-1.87-7-1.87h-3.6l1.06-5.48a1,1,0,0,0-1-1.24m0,1-1.3,6.72h4.86q4.59,0,6.33,1.6t1,5.18L84.2,83H78.66l2.17-11.18c.25-1.27.16-2.14-.27-2.6a3.87,3.87,0,0,0-2.74-.69H73.45L70.64,83H65.18l4.91-25.26h5.46"/></g><g id="g3500"><path id="path3502" d="M95.63,78.48a7.65,7.65,0,0,0,4.64-1.14,6.25,6.25,0,0,0,2-3.88c.33-1.7.2-2.88-.38-3.52s-1.86-1-3.79-1H94.77l-1.85,9.53ZM84.71,90.22A.53.53,0,0,1,84.3,90a.54.54,0,0,1-.1-.43l4.9-25.25a.52.52,0,0,1,.51-.42h10.58c3.33,0,5.8.9,7.36,2.68s2,4.29,1.44,7.44a11.63,11.63,0,0,1-3.62,6.47,10.27,10.27,0,0,1-3.85,2.31,17.53,17.53,0,0,1-5.29.68H91.94L90.72,89.8a.51.51,0,0,1-.51.42Z"/></g><g id="g3504"><path id="path3506" class="cls-7" d="M95.2,69.47h2.91c2.33,0,3.13.51,3.41.82.45.5.54,1.57.25,3.07A5.73,5.73,0,0,1,100,76.92a7.18,7.18,0,0,1-4.33,1H93.55Zm5-6.06H89.61a1,1,0,0,0-1,.84L83.69,89.5a1,1,0,0,0,1,1.24h5.5a1,1,0,0,0,1-.84L92.37,84h3.86a17.88,17.88,0,0,0,5.45-.71,10.91,10.91,0,0,0,4-2.42,12.84,12.84,0,0,0,2.44-3.06,12.59,12.59,0,0,0,1.33-3.69c.64-3.31.12-6-1.56-7.88s-4.26-2.86-7.75-2.86M92.29,79h3.34a8.14,8.14,0,0,0,5-1.25,6.64,6.64,0,0,0,2.2-4.19c.36-1.87.2-3.2-.5-4s-2.09-1.16-4.18-1.16H94.34L92.29,79m7.9-14.55q4.78,0,7,2.5t1.31,7a11.06,11.06,0,0,1-1.21,3.38A11.41,11.41,0,0,1,105,80.14a9.75,9.75,0,0,1-3.66,2.19,16.78,16.78,0,0,1-5.13.66H91.51l-1.3,6.71h-5.5l4.9-25.25h10.58"/></g></g></g></g></g></g></g></g></svg>