<svg xmlns="http://www.w3.org/2000/svg" width="48" height="48" viewBox="0 0 28.52 28.52"><defs><style>.cls-1{fill:#111111;stroke:#FFFFFF;stroke-miterlimit:10;stroke-width:0.6px;}.cls-2{fill:#111111;}.cls-3{fill:#FFFFFF;}</style></defs><title>wordpress</title><g id="Calque_2" data-name="Calque 2"><g id="Calque_1-2" data-name="Calque 1"><g id="Calque_3" data-name="Calque 3"><g id="Calque_5" data-name="Calque 5"><circle class="cls-1" cx="14.26" cy="14.26" r="13.51"/><circle class="cls-2" cx="14.26" cy="14.26" r="8.46"/><path class="cls-3" d="M14.27,22.87a8.61,8.61,0,1,1,8.6-8.6A8.62,8.62,0,0,1,14.27,22.87Zm8.1-8.61a8.11,8.11,0,1,0-8.11,8.11A8.13,8.13,0,0,0,22.37,14.26Z"/><path class="cls-3" d="M9.88,10.91l.74-.07c.22,0,.35-.15.34-.32s-.14-.29-.39-.28l-2,.08H8.31A7.11,7.11,0,0,1,19,9a1.19,1.19,0,0,0-.94.46,1.29,1.29,0,0,0-.21,1.3,5.18,5.18,0,0,0,.44.92,5.09,5.09,0,0,1,.7,1.58,4,4,0,0,1-.14,2c-.32,1.09-.67,2.18-1,3.27l-.05.07C17,16,16.12,13.47,15.27,10.91l.74-.07c.22,0,.35-.14.34-.32s-.15-.29-.39-.28l-2.92,0c-.26,0-.53,0-.79,0s-.33.09-.34.28.09.29.3.32a1.5,1.5,0,0,0,.29,0c.33,0,.47.11.58.42.28.84.6,1.67.9,2.51a.54.54,0,0,1,0,.28c-.49,1.48-1,3-1.49,4.45a.29.29,0,0,1,0,.11Z"/><path class="cls-3" d="M16.62,21a7.17,7.17,0,0,1-4.37.1L14.37,15h0Z"/><path class="cls-3" d="M7.71,11.38l3.39,9.3A7.14,7.14,0,0,1,7.71,11.38Z"/><path class="cls-3" d="M20.58,11a7.1,7.1,0,0,1-2.67,9.47c0-.08,0-.14.06-.21l2.25-6.48A6.1,6.1,0,0,0,20.58,11Z"/></g></g></g></g></svg>